<svg width="169" height="297" viewBox="0 0 169 297" fill="none" xmlns="http://www.w3.org/2000/svg">
<path fill-rule="evenodd" clip-rule="evenodd" d="M0 -9H169V192.538H0V-9Z" fill="#4AF6CD"/>
<path d="M60.4998 155.905C60.4998 152.745 60.9598 149.965 61.8798 147.565C62.7998 145.125 64.1798 142.945 66.0198 141.025L71.8998 146.005C69.6198 148.885 68.4798 151.905 68.4798 155.065C68.4798 156.705 68.7998 157.965 69.4398 158.845C70.0398 159.685 70.8998 160.105 72.0198 160.105C72.8198 160.105 73.4798 159.885 73.9998 159.445C74.5198 159.005 75.0198 158.265 75.4998 157.225C75.9798 156.185 76.5798 154.545 77.2998 152.305C78.6598 148.025 80.3798 144.905 82.4598 142.945C84.4998 140.945 87.3398 139.945 90.9798 139.945C93.6198 139.945 95.9598 140.625 97.9998 141.985C99.9998 143.345 101.56 145.325 102.68 147.925C103.8 150.485 104.36 153.505 104.36 156.985C104.36 163.625 102.34 169.045 98.2998 173.245L92.2398 167.785C94.9598 164.465 96.3198 161.005 96.3198 157.405C96.3198 155.525 95.9198 154.065 95.1198 153.025C94.2798 151.985 93.1798 151.465 91.8198 151.465C90.8598 151.465 90.0798 151.665 89.4798 152.065C88.8398 152.465 88.2798 153.185 87.7998 154.225C87.2798 155.225 86.7198 156.705 86.1198 158.665C84.6398 163.385 82.8598 166.705 80.7798 168.625C78.6998 170.545 76.0798 171.505 72.9198 171.505C70.4398 171.505 68.2598 170.845 66.3798 169.525C64.4998 168.165 63.0598 166.305 62.0598 163.945C61.0198 161.545 60.4998 158.865 60.4998 155.905ZM89.2998 102.5C92.1798 102.5 94.7598 103.14 97.0398 104.42C99.3198 105.66 101.12 107.54 102.44 110.06C103.72 112.58 104.36 115.66 104.36 119.3C104.36 124.82 103.02 129 100.34 131.84C97.6198 134.68 93.9398 136.1 89.2998 136.1H61.5798V125H88.9398C91.4598 125 93.3198 124.56 94.5198 123.68C95.6798 122.76 96.2598 121.3 96.2598 119.3C96.2598 117.3 95.6598 115.86 94.4598 114.98C93.2598 114.1 91.4198 113.66 88.9398 113.66H61.5798V102.5H89.2998ZM87.9198 82.4925V85.5525H103.28V96.6525H61.5798V82.1925C61.5798 76.3125 62.6398 71.9325 64.7598 69.0525C66.8798 66.1325 70.1398 64.6725 74.5398 64.6725C77.1798 64.6725 79.3798 65.2925 81.1398 66.5325C82.8998 67.7325 84.4798 69.6725 85.8798 72.3525L103.28 61.9725V74.3325L87.9198 82.4925ZM80.3598 85.5525V81.8325C80.3598 77.9925 78.4198 76.0725 74.5398 76.0725C72.7398 76.0725 71.4198 76.6125 70.5798 77.6925C69.7398 78.7325 69.3198 80.3125 69.3198 82.4325V85.5525H80.3598ZM103.28 59.4455H61.5798V33.8255L69.4398 34.9655V48.3455H79.4598V36.5855H87.3198V48.3455H103.28V59.4455Z" fill="white"/>
<path d="M60.4998 274.92C60.4998 269.36 62.2598 264.58 65.7798 260.58L71.4798 266.04C70.3998 267.56 69.6198 268.94 69.1398 270.18C68.6198 271.38 68.3598 272.76 68.3598 274.32C68.3598 277.32 69.5198 279.68 71.8398 281.4C74.1598 283.08 77.6998 283.92 82.4598 283.92C85.9398 283.92 88.6998 283.64 90.7398 283.08C92.7398 282.52 94.1798 281.68 95.0598 280.56C95.9398 279.4 96.3798 277.92 96.3798 276.12C96.3798 274.32 95.9998 272.68 95.2398 271.2H86.6598V275.94L79.0398 277.02V260.46H99.7998C101.24 262.62 102.36 265.06 103.16 267.78C103.96 270.5 104.36 273.18 104.36 275.82C104.36 288.86 97.0398 295.38 82.3998 295.38C77.8398 295.38 73.9198 294.5 70.6398 292.74C67.3198 290.94 64.7998 288.5 63.0798 285.42C61.3598 282.34 60.4998 278.84 60.4998 274.92ZM60.4998 237.335C60.4998 231.295 62.4198 226.595 66.2598 223.235C70.0998 219.875 75.4798 218.195 82.3998 218.195C86.9198 218.195 90.8398 218.955 94.1598 220.475C97.4398 221.955 99.9598 224.135 101.72 227.015C103.48 229.895 104.36 233.335 104.36 237.335C104.36 243.375 102.44 248.075 98.5998 251.435C94.7598 254.755 89.3598 256.415 82.3998 256.415C77.8798 256.415 73.9798 255.675 70.6998 254.195C67.4198 252.675 64.8998 250.495 63.1398 247.655C61.3798 244.775 60.4998 241.335 60.4998 237.335ZM68.4798 237.335C68.4798 239.935 69.5598 241.855 71.7198 243.095C73.8798 244.295 77.4398 244.895 82.3998 244.895C87.3598 244.895 90.9398 244.275 93.1398 243.035C95.2998 241.795 96.3798 239.895 96.3798 237.335C96.3798 234.695 95.2998 232.775 93.1398 231.575C90.9798 230.375 87.3998 229.775 82.3998 229.775C77.4398 229.775 73.8798 230.375 71.7198 231.575C69.5598 232.775 68.4798 234.695 68.4798 237.335Z" fill="white"/>
<rect x="83.494" y="203.09" width="21.1034" height="1.00595" transform="rotate(-90 83.494 203.09)" fill="white"/>
</svg>
