<svg width="19" height="22" viewBox="0 0 19 22" fill="none" xmlns="http://www.w3.org/2000/svg">
<g filter="url(#filter0_d)">
<path fill-rule="evenodd" clip-rule="evenodd" d="M9.43368 0.2948C10.6589 0.2948 11.8485 0.708526 12.7865 1.45986V1.45983C14.0117 2.44068 14.7324 3.83532 14.8195 5.38588C14.903 6.91674 14.3309 8.4145 13.2506 9.49486L9.66926 13.0293C9.53054 13.1668 9.28992 13.1656 9.1512 13.0281L5.62051 9.4974C4.5377 8.41459 3.96437 6.91561 4.04908 5.38591C4.13501 3.83542 4.85689 2.44077 6.08088 1.45986C7.0176 0.708526 8.20846 0.2948 9.43368 0.2948ZM7.02744 5.68442C7.02744 7.01153 8.10654 8.09066 9.43368 8.09066C10.7608 8.09066 11.8411 7.01156 11.8399 5.68442C11.8399 4.35732 10.7608 3.27819 9.43368 3.27819C8.10657 3.27819 7.02744 4.35729 7.02744 5.68442Z" fill="white"/>
<path d="M9.43367 4.5116C8.78668 4.5116 8.26123 5.03705 8.26123 5.68404C8.26123 6.33103 8.78668 6.85648 9.43367 6.85648C10.0807 6.85648 10.6061 6.33103 10.6061 5.68404C10.6061 5.03705 10.0807 4.5116 9.43367 4.5116Z" fill="white"/>
</g>
<defs>
<filter id="filter0_d" x="0.040863" y="0.2948" width="18.7867" height="20.837" filterUnits="userSpaceOnUse" color-interpolation-filters="sRGB">
<feFlood flood-opacity="0" result="BackgroundImageFix"/>
<feColorMatrix in="SourceAlpha" type="matrix" values="0 0 0 0 0 0 0 0 0 0 0 0 0 0 0 0 0 0 127 0"/>
<feOffset dy="4"/>
<feGaussianBlur stdDeviation="2"/>
<feColorMatrix type="matrix" values="0 0 0 0 0 0 0 0 0 0 0 0 0 0 0 0 0 0 0.25 0"/>
<feBlend mode="normal" in2="BackgroundImageFix" result="effect1_dropShadow"/>
<feBlend mode="normal" in="SourceGraphic" in2="effect1_dropShadow" result="shape"/>
</filter>
</defs>
</svg>
