<svg width="26" height="26" viewBox="0 0 26 26" fill="none" xmlns="http://www.w3.org/2000/svg">
<path fill-rule="evenodd" clip-rule="evenodd" d="M24.3304 24.3304C25.2232 23.4376 25.2232 21.9911 24.3304 21.0983L19.6139 16.3817C19.279 16.0469 19.192 15.4375 19.4174 15.0223C19.4174 15.0223 19.4018 15.0848 19.567 14.721C20.1206 13.5 20.4286 12.1429 20.4286 10.7143C20.4286 5.34823 16.0804 1 10.7143 1C5.34823 1 1 5.34823 1 10.7143C1 16.0804 5.34823 20.4286 10.7143 20.4286C12.1384 20.4286 13.4911 20.1228 14.7098 19.5715C15.0781 19.4063 15.0201 19.4197 15.0201 19.4197C15.442 19.1942 16.0469 19.279 16.3817 19.6139L21.0982 24.3304C21.991 25.2232 23.4375 25.2232 24.3304 24.3304ZM16.1429 10.7143C16.1429 13.7121 13.7121 16.1429 10.7143 16.1429C7.71656 16.1429 5.28576 13.7121 5.28576 10.7143C5.28576 7.71653 7.71656 5.28573 10.7143 5.28573C13.7121 5.28573 16.1429 7.71653 16.1429 10.7143Z" fill="white"/>
<path d="M24.3304 21.0983L23.9768 21.4518L23.9768 21.4518L24.3304 21.0983ZM19.6139 16.3817L19.9674 16.0282L19.9674 16.0281L19.6139 16.3817ZM19.4174 15.0223L19.9025 15.1436L18.978 14.7837L19.4174 15.0223ZM19.567 14.721L20.0223 14.9277L20.0224 14.9275L19.567 14.721ZM14.7098 19.5715L14.5052 19.1152L14.5038 19.1159L14.7098 19.5715ZM15.0201 19.4197L14.7845 18.9787L15.1326 19.9069L15.0201 19.4197ZM21.0982 24.3304L21.4518 23.9768L21.4518 23.9768L21.0982 24.3304ZM23.9768 21.4518C24.6744 22.1494 24.6744 23.2793 23.9768 23.9768L24.6839 24.6839C25.772 23.5959 25.772 21.8328 24.6839 20.7447L23.9768 21.4518ZM19.2603 16.7353L23.9768 21.4518L24.6839 20.7447L19.9674 16.0282L19.2603 16.7353ZM18.978 14.7837C18.8053 15.1018 18.7627 15.4701 18.8107 15.8034C18.8587 16.1368 19.0036 16.4786 19.2603 16.7353L19.9674 16.0281C19.8893 15.95 19.8233 15.8197 19.8005 15.6609C19.7776 15.502 19.8041 15.3581 19.8568 15.2609L18.978 14.7837ZM19.1117 14.5143C19.0713 14.6034 19.0429 14.6642 19.0232 14.7051C19.0134 14.7255 19.0062 14.74 19.0011 14.7501C18.9958 14.7607 18.9937 14.7643 18.9942 14.7635C18.9944 14.7631 18.9962 14.76 18.9991 14.7552C19.0017 14.7511 19.0078 14.7413 19.0169 14.7288C19.023 14.7203 19.0449 14.6904 19.0801 14.658C19.0975 14.642 19.1338 14.6106 19.1874 14.5827C19.2372 14.5568 19.3489 14.5096 19.4949 14.5324C19.6621 14.5586 19.7756 14.6599 19.8367 14.7541C19.8891 14.8348 19.9047 14.9101 19.9102 14.9431C19.9216 15.0109 19.9156 15.0646 19.9144 15.0764C19.9122 15.0971 19.9092 15.1132 19.9075 15.1214C19.9065 15.1262 19.9056 15.1305 19.9048 15.134C19.9044 15.1358 19.904 15.1375 19.9036 15.1391C19.9034 15.1399 19.9032 15.1407 19.9031 15.1414C19.903 15.1418 19.9029 15.1421 19.9028 15.1425C19.9027 15.1427 19.9027 15.143 19.9026 15.143C19.9026 15.1433 19.9025 15.1436 19.4174 15.0223C18.9324 14.9011 18.9323 14.9013 18.9322 14.9016C18.9322 14.9017 18.9321 14.902 18.9321 14.9022C18.932 14.9025 18.9319 14.9029 18.9318 14.9033C18.9316 14.904 18.9314 14.9048 18.9312 14.9056C18.9309 14.9073 18.9304 14.9091 18.93 14.911C18.9291 14.9147 18.9281 14.9193 18.9271 14.9245C18.9253 14.9334 18.9221 14.9506 18.9198 14.9722C18.9185 14.985 18.9125 15.0397 18.924 15.1083C18.9296 15.1417 18.9453 15.2173 18.9978 15.2983C19.059 15.3927 19.1728 15.4942 19.3403 15.5204C19.4866 15.5433 19.5986 15.496 19.6488 15.4699C19.7028 15.4418 19.7397 15.41 19.7576 15.3935C19.794 15.3599 19.8174 15.3282 19.8256 15.317C19.8452 15.2901 19.8595 15.2649 19.8664 15.2527C19.8952 15.2013 19.941 15.1068 20.0223 14.9277L19.1117 14.5143ZM19.9286 10.7143C19.9286 12.0704 19.6363 13.3572 19.1116 14.5145L20.0224 14.9275C20.6048 13.6428 20.9286 12.2154 20.9286 10.7143H19.9286ZM10.7143 1.5C15.8042 1.5 19.9286 5.62438 19.9286 10.7143H20.9286C20.9286 5.07209 16.3565 0.5 10.7143 0.5V1.5ZM1.5 10.7143C1.5 5.62438 5.62438 1.5 10.7143 1.5V0.5C5.07209 0.5 0.5 5.07209 0.5 10.7143H1.5ZM10.7143 19.9286C5.62438 19.9286 1.5 15.8042 1.5 10.7143H0.5C0.5 16.3565 5.07209 20.9286 10.7143 20.9286V19.9286ZM14.5038 19.1159C13.3487 19.6384 12.0662 19.9286 10.7143 19.9286V20.9286C12.2106 20.9286 13.6335 20.6072 14.9159 20.027L14.5038 19.1159ZM15.0201 19.4197C15.1326 19.9069 15.1322 19.9069 15.1319 19.907C15.1318 19.907 15.1315 19.9071 15.1313 19.9072C15.1309 19.9073 15.1304 19.9074 15.13 19.9075C15.1291 19.9077 15.1282 19.9079 15.1272 19.9081C15.1253 19.9085 15.1233 19.9089 15.1211 19.9094C15.1169 19.9102 15.1116 19.9113 15.1056 19.9123C15.0959 19.914 15.0745 19.9174 15.047 19.9188C15.033 19.9195 15.0105 19.92 14.9829 19.9179C14.9585 19.9159 14.9096 19.9104 14.8518 19.8893C14.7969 19.8693 14.688 19.8183 14.607 19.6966C14.5157 19.5592 14.5117 19.4112 14.5369 19.3049C14.5587 19.2128 14.6012 19.1503 14.6214 19.123C14.6447 19.0916 14.6669 19.0695 14.6798 19.0574C14.7053 19.0333 14.7274 19.0179 14.7353 19.0125C14.7455 19.0054 14.7533 19.0007 14.7567 18.9987C14.7586 18.9975 14.7601 18.9966 14.7611 18.9961C14.762 18.9956 14.7625 18.9953 14.7626 18.9953C14.7626 18.9952 14.7614 18.9959 14.7586 18.9974C14.7558 18.9988 14.7519 19.0008 14.7465 19.0035C14.7358 19.0089 14.7205 19.0163 14.6995 19.0262C14.6575 19.0462 14.5955 19.0748 14.5052 19.1152L14.9145 20.0277C15.0965 19.946 15.1919 19.9004 15.2436 19.872C15.2566 19.8649 15.2789 19.8523 15.3028 19.8358C15.3137 19.8283 15.338 19.8112 15.3649 19.7858C15.3785 19.773 15.4012 19.7504 15.4248 19.7185C15.4453 19.6908 15.4881 19.6278 15.51 19.5355C15.5352 19.4287 15.5312 19.2805 15.4397 19.1429C15.3586 19.021 15.2495 18.9699 15.1943 18.9498C15.094 18.9132 15.0079 18.9195 14.9968 18.92C14.9684 18.9215 14.9461 18.925 14.9357 18.9268C14.9294 18.9279 14.9239 18.929 14.9194 18.9299C14.9171 18.9304 14.915 18.9308 14.9131 18.9313C14.9121 18.9315 14.9112 18.9317 14.9103 18.9319C14.9098 18.932 14.9094 18.9321 14.909 18.9322C14.9087 18.9322 14.9084 18.9323 14.9083 18.9323C14.908 18.9324 14.9077 18.9325 15.0201 19.4197ZM16.7353 19.2603C16.241 18.7661 15.3959 18.6519 14.7845 18.9787L15.2558 19.8607C15.4881 19.7365 15.8528 19.792 16.0282 19.9674L16.7353 19.2603ZM21.4518 23.9768L16.7353 19.2603L16.0282 19.9674L20.7447 24.6839L21.4518 23.9768ZM23.9768 23.9768C23.2792 24.6744 22.1493 24.6744 21.4518 23.9768L20.7447 24.6839C21.8328 25.7721 23.5958 25.772 24.6839 24.6839L23.9768 23.9768ZM10.7143 16.6429C13.9883 16.6429 16.6429 13.9882 16.6429 10.7143H15.6429C15.6429 13.4359 13.436 15.6429 10.7143 15.6429V16.6429ZM4.78576 10.7143C4.78576 13.9882 7.44042 16.6429 10.7143 16.6429V15.6429C7.99271 15.6429 5.78576 13.4359 5.78576 10.7143H4.78576ZM10.7143 4.78573C7.44042 4.78573 4.78576 7.44039 4.78576 10.7143H5.78576C5.78576 7.99268 7.99271 5.78573 10.7143 5.78573V4.78573ZM16.6429 10.7143C16.6429 7.44039 13.9883 4.78573 10.7143 4.78573V5.78573C13.436 5.78573 15.6429 7.99268 15.6429 10.7143H16.6429Z" fill="black"/>
</svg>
